<?xml version="1.0" encoding="UTF-8" standalone="no" ?>
<!DOCTYPE svg PUBLIC "-//W3C//DTD SVG 1.1//EN" "http://www.w3.org/Graphics/SVG/1.1/DTD/svg11.dtd">
<svg xmlns="http://www.w3.org/2000/svg" xmlns:xlink="http://www.w3.org/1999/xlink" version="1.1" width="1280" height="1024" viewBox="0 0 1280 1024" xml:space="preserve">
<desc>Created with Fabric.js 5.3.0</desc>
<defs>
</defs>
<g transform="matrix(1 0 0 1 640 512)" id="background-logo"  >
<rect style="stroke: none; stroke-width: 0; stroke-dasharray: none; stroke-linecap: butt; stroke-dashoffset: 0; stroke-linejoin: miter; stroke-miterlimit: 4; fill: rgb(255,255,255); fill-opacity: 0; fill-rule: nonzero; opacity: 1;"  paint-order="stroke"  x="-640" y="-512" rx="0" ry="0" width="1280" height="1024" />
</g>
<g transform="matrix(1.9211538461538462 0 0 1.9211538461538462 640 374.476362149015)" id="logo-logo"  >
<g style=""  paint-order="stroke"   >
		<g transform="matrix(6.6875764200668755 0 0 6.6875764200668755 0 0)"  >
<polygon style="stroke: none; stroke-width: 1; stroke-dasharray: none; stroke-linecap: butt; stroke-dashoffset: 0; stroke-linejoin: miter; stroke-miterlimit: 4; fill: rgb(243,156,79); fill-rule: nonzero; opacity: 1;"  paint-order="stroke"  points="-24.05175779999996,6.7470703000000185 -3.41601559999998,14.34375 21.500976500000036,6.292968799999983 21.500976500000036,5.1591796999999815 -3.359374999999943,13.06835940000002 -10.27539059999998,10.573242199999981 -10.27539059999998,2.8349608999999987 -21.273437499999943,-0.5664062000000172 -21.273437499999943,6.57617190000002 -24.05175779999996,5.55664059999998 -24.05175779999996,-5.499023399999999 -22.60644529999996,-5.074218700000017 -21.216796899999963,-4.6484375 -15.68945309999998,-3.003906200000017 -15.68945309999998,-7.22851559999998 -3.41601559999998,3.96875 -3.359374999999943,2.4384766000000013 -18.12695309999998,-10.828125 -14.953124999999943,-11.65039059999998 -0.41113279999996166,1.53125 0.8359375000000568,1.1337891000000013 -13.677734399999963,-12.018554699999981 -10.871093799999983,-12.75585940000002 3.5576172000000383,0.28320309999998017 4.804687500000057,-0.08496089999999867 -9.566406299999983,-13.124023399999999 -6.7607421999999815,-13.86132809999998 7.526367200000038,-0.9355469000000198 8.773437500000057,-1.3037108999999987 -5.457031299999983,-14.20117190000002 -2.65039059999998,-14.96679690000002 11.494140600000037,-2.15429690000002 12.742187500000057,-2.550781200000017 -1.3749999999999432,-15.30664059999998 1.4599609000000555,-16.07226559999998 15.462890600000037,-3.37304690000002 16.709960900000056,-3.769531200000017 2.7353515000000357,-16.41210940000002 5.541992200000038,-17.17773440000002 19.431640600000037,-4.6201171999999815 20.678710900000056,-4.988281200000017 6.845703100000037,-17.51757809999998 9.311523400000056,-18.16992190000002 24.05175780000002,-5.04492190000002 24.05175780000002,9.297851600000001 -3.5009765999999445,18.16992190000002 -24.05175779999996,10.573242199999981 " />
</g>
		<g transform="matrix(6.6875764200668755 0 0 6.6875764200668755 -130.80285591573306 -34.21505137492912)"  >
<polygon style="stroke: none; stroke-width: 1; stroke-dasharray: none; stroke-linecap: butt; stroke-dashoffset: 0; stroke-linejoin: miter; stroke-miterlimit: 4; fill: rgb(243,156,79); fill-opacity: 0.46; fill-rule: evenodd; opacity: 1;"  paint-order="stroke"  points="-4.492675749999989,-0.3828125 3.869628949999992,-2.1123046999999815 4.492675749999989,0.24121089999999867 3.869628949999992,2.1123046999999815 0.3833007499999894,1.7148437000000172 " />
</g>
</g>
</g>
<g transform="matrix(1.9211538461538462 0 0 1.9211538461538462 639.4882994835082 713.4428115875015)" id="text-logo"  >
<g style=""  paint-order="stroke"   >
		<g transform="matrix(1 0 0 1 0 0)" id="text-logo-path-0"  >
<path style="stroke: none; stroke-width: 0; stroke-dasharray: none; stroke-linecap: butt; stroke-dashoffset: 0; stroke-linejoin: miter; stroke-miterlimit: 4; fill: rgb(243,156,79); fill-rule: nonzero; opacity: 1;"  paint-order="stroke"  transform=" translate(-257.95500000000004, 15.564999999999998)" d="M 17.32 -42.9 L 17.32 -14.3 C 17.32 -10.56 16.77 -8.25 14.19 -8.25 C 11.61 -8.25 11.05 -10.56 11.05 -14.85 L 1.16 -14.85 L 1.16 -13.2 C 1.16 -4.29 4.57 0.77 14.46 0.77 C 23.82 0.77 27.77 -4.29 27.77 -13.09 L 27.77 -42.9 Z M 59.67 -11 L 59.67 -15.4 C 59.67 -23.93 55.27 -29.92 45.87 -29.92 C 36.47 -29.92 31.63 -23.93 31.63 -15.4 L 31.63 -13.75 C 31.63 -5.22 36.24 0.77 46.2 0.77 C 54.67 0.77 59.67 -3.3 59.67 -9.13 L 59.67 -9.35 L 50.16 -9.35 C 50.16 -7.97 48.45 -6.82 46.25 -6.82 C 43.73 -6.82 42.08 -7.7 41.74 -11 Z M 45.65 -22.33 C 48.02 -22.33 49.28 -21.23 49.55 -18.15 L 41.74 -18.15 C 42.02 -21.23 43.28 -22.33 45.65 -22.33 Z M 75.63 -6.82 C 73.53 -6.82 72.66 -7.75 72.66 -9.35 L 62.59 -9.35 L 62.59 -9.07 C 62.59 -3.02 67.05 0.77 75.63 0.77 C 84.37 0.77 88.66 -3.02 88.66 -9.4 L 88.66 -9.96 C 88.66 -16.34 83.38 -17.66 76.06 -18.26 C 73.59 -18.48 72.88 -18.98 72.88 -20.35 C 72.88 -21.5 73.81 -22.33 75.63 -22.33 C 77.44 -22.33 78.38 -21.29 78.38 -19.52 L 88.28 -19.52 L 88.28 -19.8 C 88.28 -26.23 84.37 -29.92 75.63 -29.92 C 68.69 -29.92 62.97 -27.23 62.97 -20.02 L 62.97 -19.47 C 62.97 -13.64 66.88 -11.82 75.24 -11.17 C 77.99 -10.95 78.54 -10.18 78.54 -8.96 C 78.54 -7.81 77.82 -6.82 75.63 -6.82 Z M 104.77 -6.82 C 102.68 -6.82 101.8 -7.75 101.8 -9.35 L 91.74 -9.35 L 91.74 -9.07 C 91.74 -3.02 96.19 0.77 104.77 0.77 C 113.52 0.77 117.81 -3.02 117.81 -9.4 L 117.81 -9.96 C 117.81 -16.34 112.53 -17.66 105.21 -18.26 C 102.74 -18.48 102.02 -18.98 102.02 -20.35 C 102.02 -21.5 102.96 -22.33 104.77 -22.33 C 106.59 -22.33 107.52 -21.29 107.52 -19.52 L 117.42 -19.52 L 117.42 -19.8 C 117.42 -26.23 113.52 -29.92 104.77 -29.92 C 97.84 -29.92 92.12 -27.23 92.12 -20.02 L 92.12 -19.47 C 92.12 -13.64 96.03 -11.82 104.39 -11.17 C 107.14 -10.95 107.69 -10.18 107.69 -8.96 C 107.69 -7.81 106.97 -6.82 104.77 -6.82 Z M 148.78 -11 L 148.78 -15.4 C 148.78 -23.93 144.38 -29.92 134.97 -29.92 C 125.56 -29.92 120.72 -23.93 120.72 -15.4 L 120.72 -13.75 C 120.72 -5.22 125.34 0.77 135.3 0.77 C 143.77 0.77 148.78 -3.3 148.78 -9.13 L 148.78 -9.35 L 139.26 -9.35 C 139.26 -7.97 137.56 -6.82 135.35 -6.82 C 132.82 -6.82 131.17 -7.7 130.84 -11 Z M 134.75 -22.33 C 137.12 -22.33 138.38 -21.23 138.66 -18.15 L 130.84 -18.15 C 131.12 -21.23 132.38 -22.33 134.75 -22.33 Z M 152.35 -42.9 L 153.89 -24.2 L 161.81 -24.2 L 163.35 -42.9 Z M 180.13 -6.82 C 178.04 -6.82 177.16 -7.75 177.16 -9.35 L 167.09 -9.35 L 167.09 -9.07 C 167.09 -3.02 171.55 0.77 180.13 0.77 C 188.87 0.77 193.16 -3.02 193.16 -9.4 L 193.16 -9.96 C 193.16 -16.34 187.88 -17.66 180.56 -18.26 C 178.09 -18.48 177.38 -18.98 177.38 -20.35 C 177.38 -21.5 178.31 -22.33 180.13 -22.33 C 181.94 -22.33 182.88 -21.29 182.88 -19.52 L 192.78 -19.52 L 192.78 -19.8 C 192.78 -26.23 188.87 -29.92 180.13 -29.92 C 173.2 -29.92 167.48 -27.23 167.48 -20.02 L 167.48 -19.47 C 167.48 -13.64 171.38 -11.82 179.74 -11.17 C 182.49 -10.95 183.04 -10.18 183.04 -8.96 C 183.04 -7.81 182.33 -6.82 180.13 -6.82 Z M 241.73 -24.75 L 241.45 -16.5 L 241.45 0 L 251.9 0 L 251.9 -42.9 L 236.34 -42.9 L 230.18 -18.15 L 224.02 -42.9 L 208.45 -42.9 L 208.45 0 L 218.9 0 L 218.9 -16.5 L 218.63 -24.75 L 224.79 0 L 235.57 0 Z M 274.45 0 L 283.58 0 L 283.03 -8.25 L 283.03 -18.7 C 283.03 -25.91 280.01 -29.92 270.05 -29.92 C 260.15 -29.92 257.13 -25.3 257.13 -20.02 L 257.13 -19.52 L 266.64 -19.52 C 266.64 -20.9 267.3 -22.33 269.78 -22.33 C 271.98 -22.33 272.8 -21.34 272.91 -19.25 L 266.75 -18.26 C 260.26 -17.27 256.03 -15.13 256.03 -8.8 L 256.03 -8.25 C 256.03 -3.58 258.23 0.77 265.1 0.77 C 268.95 0.77 271.87 -0.6 273.9 -2.75 Z M 268.95 -7.37 C 266.86 -7.37 266.09 -8.58 266.09 -9.73 L 266.09 -10.06 C 266.09 -11.38 266.59 -12.43 268.95 -12.81 L 272.91 -13.42 L 272.91 -8.96 C 272.09 -8.2 270.66 -7.37 268.95 -7.37 Z M 315.76 0 L 315.76 -19.52 C 315.76 -24.75 313.56 -29.92 306.68 -29.92 C 302.34 -29.92 299.37 -28.11 297.44 -25.52 L 296.78 -29.15 L 287.65 -29.15 L 288.2 -20.9 L 288.2 0 L 298.32 0 L 298.32 -18.98 C 298.87 -19.8 300.36 -21.23 302.56 -21.23 C 305.31 -21.23 305.64 -19.25 305.64 -17.88 L 305.64 0 Z M 337.54 -0.82 C 337.54 2.75 336.05 3.63 333.36 3.63 C 330.28 3.63 329.62 1.93 329.62 0 L 320.1 0 L 320.1 1.32 C 320.1 7.15 323.46 11.77 333.58 11.77 C 342.98 11.77 347.66 7.7 347.66 -0.82 L 347.66 -20.9 L 348.21 -29.15 L 339.08 -29.15 L 338.47 -25.96 C 336.82 -28.27 334.24 -29.92 330.28 -29.92 C 322.58 -29.92 319.55 -24.2 319.55 -16.23 L 319.55 -14.57 C 319.55 -6.05 322.58 -0.88 330.28 -0.88 C 333.52 -0.88 335.89 -1.93 337.54 -3.63 Z M 337.54 -11.82 C 336.99 -11 335.5 -9.57 333.3 -9.57 C 330.83 -9.57 329.62 -11 329.62 -14.57 L 329.62 -16.23 C 329.62 -19.25 330.83 -21.23 333.3 -21.23 C 335.5 -21.23 336.99 -19.8 337.54 -18.98 Z M 379.78 -11 L 379.78 -15.4 C 379.78 -23.93 375.38 -29.92 365.97 -29.92 C 356.57 -29.92 351.73 -23.93 351.73 -15.4 L 351.73 -13.75 C 351.73 -5.22 356.35 0.77 366.3 0.77 C 374.77 0.77 379.78 -3.3 379.78 -9.13 L 379.78 -9.35 L 370.26 -9.35 C 370.26 -7.97 368.56 -6.82 366.36 -6.82 C 363.83 -6.82 362.18 -7.7 361.85 -11 Z M 365.75 -22.33 C 368.12 -22.33 369.38 -21.23 369.66 -18.15 L 361.85 -18.15 C 362.12 -21.23 363.39 -22.33 365.75 -22.33 Z M 427.13 0 L 427.13 -19.8 C 427.13 -25.3 424.66 -29.92 418.33 -29.92 C 414.1 -29.92 411.18 -28.11 409.42 -25.46 C 408.1 -28.11 405.68 -29.92 401.78 -29.92 C 397.71 -29.92 394.9 -28.27 393.09 -25.8 L 392.48 -29.15 L 383.35 -29.15 L 383.9 -20.9 L 383.9 0 L 394.02 0 L 394.02 -19.25 C 394.57 -20.07 395.73 -21.23 397.65 -21.23 C 399.85 -21.23 400.46 -19.8 400.46 -18.15 L 400.46 0 L 410.58 0 L 410.58 -19.25 C 411.13 -20.07 412.28 -21.23 414.21 -21.23 C 416.41 -21.23 417.01 -19.8 417.01 -18.15 L 417.01 0 Z M 458.98 -11 L 458.98 -15.4 C 458.98 -23.93 454.58 -29.92 445.17 -29.92 C 435.77 -29.92 430.93 -23.93 430.93 -15.4 L 430.93 -13.75 C 430.93 -5.22 435.55 0.77 445.5 0.77 C 453.97 0.77 458.98 -3.3 458.98 -9.13 L 458.98 -9.35 L 449.46 -9.35 C 449.46 -7.97 447.76 -6.82 445.56 -6.82 C 443.03 -6.82 441.38 -7.7 441.05 -11 Z M 444.95 -22.33 C 447.32 -22.33 448.58 -21.23 448.86 -18.15 L 441.05 -18.15 C 441.32 -21.23 442.59 -22.33 444.95 -22.33 Z M 490.66 0 L 490.66 -19.52 C 490.66 -24.75 488.46 -29.92 481.58 -29.92 C 477.24 -29.92 474.27 -28.11 472.34 -25.52 L 471.68 -29.15 L 462.55 -29.15 L 463.1 -20.9 L 463.1 0 L 473.22 0 L 473.22 -18.98 C 473.77 -19.8 475.26 -21.23 477.46 -21.23 C 480.21 -21.23 480.54 -19.25 480.54 -17.88 L 480.54 0 Z M 507.76 -29.15 L 507.76 -37.4 L 497.64 -37.4 L 497.64 -29.15 L 493.24 -29.15 L 493.24 -20.35 L 497.64 -20.35 L 497.64 -10.72 C 497.64 -2.2 502.32 0.77 509.3 0.77 C 512.05 0.77 513.7 0.28 514.2 0 L 514.2 -8.25 C 513.92 -8.14 512.55 -7.92 511.67 -7.92 C 509.36 -7.92 507.76 -8.53 507.76 -11.82 L 507.76 -20.35 L 514.75 -20.35 L 514.75 -29.15 Z" stroke-linecap="round" />
</g>
</g>
</g>
</svg>